<?xml version="1.0" encoding="iso-8859-1"?>
<!-- Generator: Adobe Illustrator 19.0.0, SVG Export Plug-In . SVG Version: 6.00 Build 0)  -->
<svg version="1.1" id="Capa_1" xmlns="http://www.w3.org/2000/svg" xmlns:xlink="http://www.w3.org/1999/xlink" x="0px" y="0px"
	 viewBox="0 0 512 512" style="enable-background:new 0 0 512 512;" xml:space="preserve">
<path style="fill:#57555C;" d="M502.245,266c0,16.675-13.705,30-30,30c-12.729,0-423.721,0-431.996,0c-16.269,0-30-13.3-30-30
	c0-16.6,13.4-30,30-30c3.887,0,425.675,0,431.996,0C488.845,236,502.245,249.4,502.245,266z"/>
<path style="fill:#FEA832;" d="M496.385,118.431c7.81,7.81,7.81,20.47,0,28.28c-7.788,7.807-20.48,7.82-28.28,0l-56.569-56.569
	c-7.81-7.81-7.81-20.47,0-28.28c7.83-7.81,20.444-7.816,28.28,0L496.385,118.431z"/>
<path style="fill:#57555C;" d="M476.245,295.999v6c0,74.589-50.969,137.209-119.999,154.958c-12.79,3.29-26.19,5.04-40,5.04H196.248
	c-13.81,0-27.21-1.75-40-5.04C87.219,439.208,36.25,376.589,36.25,301.999v-6c3.2,1.2,6.4,0,10,0h419.996
	C469.845,295.999,473.045,297.199,476.245,295.999z"/>
<polygon style="fill:#EDECFF;" points="468.105,146.711 392.556,236 239.158,236 411.536,90.141 "/>
<path style="fill:#57555C;" d="M356.247,456.958v25.04c0,11.05-8.95,20-20,20H176.248c-11.05,0-20-8.95-20-20v-25.04
	c12.79,3.29,26.19,5.04,40,5.04h119.999C330.057,461.998,343.457,460.248,356.247,456.958z"/>
<g>
	<path style="fill:#3BCD92;" d="M276.247,10.002c11.05,0,20,8.95,20,20s-8.95,20-20,20c-11.05,0-20-8.95-20-20
		S265.197,10.002,276.247,10.002z"/>
	<path style="fill:#3BCD92;" d="M216.248,150.001h-40c-55.229,0-99.999-44.77-99.999-99.999v-40h40
		c55.229,0,99.999,44.77,99.999,99.999V150.001z"/>
</g>
<path d="M235.998,431.998c5.52,0,10-4.48,10-10c0-5.52-4.48-10-10-10c-5.52,0-10,4.48-10,10
	C225.998,427.518,230.478,431.998,235.998,431.998z"/>
<path d="M503.206,153.783c11.725-11.725,11.725-30.698,0-42.422l-56.578-56.579c-11.618-11.588-30.537-11.836-42.413,0.01
	c-9.03,9.03-11.081,22.43-6.167,33.453L235.246,226H40c-22.056,0-40,17.944-40,40c0,16.747,10.424,31.669,26.015,37.388
	c0.6,74.44,49.386,139.508,119.984,161.135v17.475c0,16.542,13.458,30,30,30h159.998c16.542,0,30-13.458,30-30v-17.475
	c70.599-21.63,119.384-86.696,119.984-161.136c15.591-5.717,26.015-20.64,26.015-37.387c0-22.056-17.944-40-40-40h-58.129
	l55.875-66.036C480.619,164.836,494.062,162.952,503.206,153.783z M418.348,68.943c3.958-3.947,10.252-3.894,14.147-0.01
	l56.568,56.57c3.856,3.856,3.964,10.173-0.01,14.147c-3.887,3.899-10.231,3.898-14.117,0c-0.002-0.002-0.003-0.003-0.005-0.005
	s-0.003-0.003-0.005-0.005l-56.569-56.569c-0.001-0.001-0.002-0.001-0.002-0.002C414.46,79.171,414.461,72.83,418.348,68.943z
	 M335.997,491.998H175.998c-5.514,0-10-4.486-10-10v-12.662c9.868,1.756,19.911,2.663,30,2.663h119.999
	c10.089,0,20.132-0.906,30-2.663v12.663C345.997,487.513,341.511,491.998,335.997,491.998z M353.506,447.274
	c-12.188,3.135-24.808,4.725-37.509,4.725H195.998c-12.701,0-25.321-1.59-37.51-4.725C93.551,430.575,47.814,372.718,46.053,305.899
	h419.891C464.181,372.718,418.444,430.575,353.506,447.274z M491.995,266c0,8.478-5.329,16.012-13.26,18.747
	c-0.084,0.029-0.168,0.059-0.251,0.09c-2.146,0.805-4.147,1.164-6.489,1.164H40c-10.515,0-20-8.523-20-20c0-11.028,8.972-20,20-20
	h431.996C483.023,246,491.995,254.973,491.995,266z M387.667,226H266.206l144.516-122.281l43.558,43.558L387.667,226z"/>
<path d="M73.434,345.34c18.369,51.834,67.623,86.659,122.564,86.659c5.522,0,10-4.477,10-10c0-5.523-4.478-10-10-10
	c-46.489,0-88.167-29.473-103.713-73.339c-1.846-5.206-7.564-7.929-12.766-6.085C74.313,334.418,71.589,340.134,73.434,345.34z"/>
<path d="M115.999,0.002h-40c-5.522,0-10,4.477-10,10v40c0,60.653,49.346,109.999,109.999,109.999h35.857l17.071,17.071
	c3.906,3.905,10.236,3.905,14.143,0c3.905-3.905,3.905-10.237,0-14.143l-17.071-17.07v-35.857
	C225.998,49.348,176.652,0.002,115.999,0.002z M175.998,140.001c-49.626,0-89.999-40.374-89.999-89.999v-30h30
	c49.626,0,89.999,40.374,89.999,89.999v15.857L123.07,42.93c-3.906-3.905-10.236-3.905-14.143,0c-3.905,3.905-3.905,10.237,0,14.143
	l82.928,82.928H175.998z"/>
<path d="M275.997,60.002c16.542,0,30-13.458,30-30s-13.458-30-30-30c-16.542,0-30,13.458-30,30S259.455,60.002,275.997,60.002z
	 M275.997,20.002c5.514,0,10,4.486,10,10s-4.486,10-10,10c-5.514,0-10-4.486-10-10S270.483,20.002,275.997,20.002z"/>
<g>
</g>
<g>
</g>
<g>
</g>
<g>
</g>
<g>
</g>
<g>
</g>
<g>
</g>
<g>
</g>
<g>
</g>
<g>
</g>
<g>
</g>
<g>
</g>
<g>
</g>
<g>
</g>
<g>
</g>
</svg>
