<svg height="512" viewBox="0 0 64 64" width="512" xmlns="http://www.w3.org/2000/svg"><g id="flat"><rect fill="#92cdde" height="48" rx="4" width="32" x="16" y="13"/><path d="m16 19h32v32h-32z" fill="#f4f4e6"/><path d="m16 26a8 8 0 0 1 0 16z" fill="#fcf05a"/><path d="m20 3h24v6h-24z" fill="#e1462b"/><g fill="#e97424"><path d="m23 3h2v3h-2z"/><path d="m27 3h2v3h-2z"/><path d="m35 3h2v3h-2z"/><path d="m39 3h2v3h-2z"/><path d="m31 3h2v3h-2z"/></g><path d="m22 9h20v4h-20z" fill="#2d75bb"/><path d="m24 34a9.623 9.623 0 0 0 -1-4.645l-7 4.645 6.671 4.418a8.968 8.968 0 0 0 1.329-4.418z" fill="#f9bb4b"/><path d="m31 23h13v16h-13z" fill="#e97424"/><path d="m38 36h-1a3 3 0 0 1 -3-3v-4a3 3 0 0 1 3-3h1a3 3 0 0 1 3 3v1h-2v-1a1 1 0 0 0 -1-1h-1a1 1 0 0 0 -1 1v4a1 1 0 0 0 1 1h1a1 1 0 0 0 1-1v-1h2v1a3 3 0 0 1 -3 3z" fill="#fcf05a"/><g fill="#195c85"><path d="m28 42h4v2h-4z"/><path d="m34 42h11v2h-11z"/><path d="m25 46h11v2h-11z"/><path d="m38 46h7v2h-7z"/></g><path d="m24 58h-4a1 1 0 0 1 -1-1v-3h2v2h3z" fill="#f4f4e6"/><path d="m26 56h2v2h-2z" fill="#f4f4e6"/><path d="m30 56h2v2h-2z" fill="#f4f4e6"/><path d="m16 23a11 11 0 0 1 0 22v-4a7 7 0 0 0 0-14z" fill="#e97424"/></g></svg>